<mxfile host="app.diagrams.net" modified="2024-06-27T06:12:32.523Z" agent="Mozilla/5.0 (Windows NT 10.0; Win64; x64) AppleWebKit/537.36 (KHTML, like Gecko) Chrome/126.0.0.0 Safari/537.36" etag="d3P91bqRkyN2HOxNpyao" version="24.6.3" type="device">
  <diagram name="Page-1" id="tT5Ipw2HwErVwvldb5kj">
    <mxGraphModel dx="1290" dy="1691" grid="1" gridSize="10" guides="1" tooltips="1" connect="1" arrows="1" fold="1" page="1" pageScale="1" pageWidth="827" pageHeight="1169" math="0" shadow="0">
      <root>
        <mxCell id="0" />
        <mxCell id="1" parent="0" />
        <mxCell id="feQ73xQbz-p39PmRA1JL-1" value="User" style="rounded=0;whiteSpace=wrap;html=1;" vertex="1" parent="1">
          <mxGeometry x="30" y="-680" width="120" height="30" as="geometry" />
        </mxCell>
        <mxCell id="feQ73xQbz-p39PmRA1JL-2" value="UserController" style="rounded=0;whiteSpace=wrap;html=1;" vertex="1" parent="1">
          <mxGeometry x="190" y="-680" width="120" height="30" as="geometry" />
        </mxCell>
        <mxCell id="feQ73xQbz-p39PmRA1JL-3" value="UserServive" style="rounded=0;whiteSpace=wrap;html=1;" vertex="1" parent="1">
          <mxGeometry x="360" y="-680" width="120" height="30" as="geometry" />
        </mxCell>
        <mxCell id="feQ73xQbz-p39PmRA1JL-4" value="UserRepository" style="rounded=0;whiteSpace=wrap;html=1;" vertex="1" parent="1">
          <mxGeometry x="520" y="-680" width="120" height="30" as="geometry" />
        </mxCell>
        <mxCell id="feQ73xQbz-p39PmRA1JL-5" value="FlightService" style="rounded=0;whiteSpace=wrap;html=1;" vertex="1" parent="1">
          <mxGeometry x="660" y="-680" width="120" height="30" as="geometry" />
        </mxCell>
        <mxCell id="feQ73xQbz-p39PmRA1JL-6" value="FlightController" style="rounded=0;whiteSpace=wrap;html=1;" vertex="1" parent="1">
          <mxGeometry x="800" y="-680" width="120" height="30" as="geometry" />
        </mxCell>
        <mxCell id="feQ73xQbz-p39PmRA1JL-7" value="" style="endArrow=none;html=1;rounded=0;entryX=0.5;entryY=1;entryDx=0;entryDy=0;" edge="1" parent="1" target="feQ73xQbz-p39PmRA1JL-1">
          <mxGeometry width="50" height="50" relative="1" as="geometry">
            <mxPoint x="90" y="920" as="sourcePoint" />
            <mxPoint x="90" y="-580" as="targetPoint" />
          </mxGeometry>
        </mxCell>
        <mxCell id="feQ73xQbz-p39PmRA1JL-8" value="" style="endArrow=none;html=1;rounded=0;entryX=0.5;entryY=1;entryDx=0;entryDy=0;" edge="1" parent="1">
          <mxGeometry width="50" height="50" relative="1" as="geometry">
            <mxPoint x="560" y="920" as="sourcePoint" />
            <mxPoint x="570" y="-650" as="targetPoint" />
          </mxGeometry>
        </mxCell>
        <mxCell id="feQ73xQbz-p39PmRA1JL-9" value="" style="endArrow=none;html=1;rounded=0;entryX=0.5;entryY=1;entryDx=0;entryDy=0;" edge="1" parent="1">
          <mxGeometry width="50" height="50" relative="1" as="geometry">
            <mxPoint x="410" y="920" as="sourcePoint" />
            <mxPoint x="413" y="-650" as="targetPoint" />
          </mxGeometry>
        </mxCell>
        <mxCell id="feQ73xQbz-p39PmRA1JL-10" value="vv&lt;span style=&quot;color: rgba(0, 0, 0, 0); font-family: monospace; font-size: 0px; text-align: start; background-color: rgb(251, 251, 251);&quot;&gt;%3CmxGraphModel%3E%3Croot%3E%3CmxCell%20id%3D%220%22%2F%3E%3CmxCell%20id%3D%221%22%20parent%3D%220%22%2F%3E%3CmxCell%20id%3D%222%22%20value%3D%22%22%20style%3D%22endArrow%3Dnone%3Bhtml%3D1%3Brounded%3D0%3BentryX%3D0.5%3BentryY%3D1%3BentryDx%3D0%3BentryDy%3D0%3B%22%20edge%3D%221%22%20parent%3D%221%22%3E%3CmxGeometry%20width%3D%2250%22%20height%3D%2250%22%20relative%3D%221%22%20as%3D%22geometry%22%3E%3CmxPoint%20x%3D%2290%22%20y%3D%2216.800048828125%22%20as%3D%22sourcePoint%22%2F%3E%3CmxPoint%20x%3D%2290%22%20y%3D%22-650%22%20as%3D%22targetPoint%22%2F%3E%3C%2FmxGeometry%3E%3C%2FmxCell%3E%3C%2Froot%3E%3C%2FmxGraphModel%3E&lt;/span&gt;&lt;span style=&quot;color: rgba(0, 0, 0, 0); font-family: monospace; font-size: 0px; text-align: start; background-color: rgb(251, 251, 251);&quot;&gt;%3CmxGraphModel%3E%3Croot%3E%3CmxCell%20id%3D%220%22%2F%3E%3CmxCell%20id%3D%221%22%20parent%3D%220%22%2F%3E%3CmxCell%20id%3D%222%22%20value%3D%22%22%20style%3D%22endArrow%3Dnone%3Bhtml%3D1%3Brounded%3D0%3BentryX%3D0.5%3BentryY%3D1%3BentryDx%3D0%3BentryDy%3D0%3B%22%20edge%3D%221%22%20parent%3D%221%22%3E%3CmxGeometry%20width%3D%2250%22%20height%3D%2250%22%20relative%3D%221%22%20as%3D%22geometry%22%3E%3CmxPoint%20x%3D%2290%22%20y%3D%2216.800048828125%22%20as%3D%22sourcePoint%22%2F%3E%3CmxPoint%20x%3D%2290%22%20y%3D%22-650%22%20as%3D%22targetPoint%22%2F%3E%3C%2FmxGeometry%3E%3C%2FmxCell%3E%3C%2Froot%3E%3C%2FmxGraphModel%3E&lt;/span&gt;&lt;span style=&quot;color: rgba(0, 0, 0, 0); font-family: monospace; font-size: 0px; text-align: start; background-color: rgb(251, 251, 251);&quot;&gt;%3CmxGraphModel%3E%3Croot%3E%3CmxCell%20id%3D%220%22%2F%3E%3CmxCell%20id%3D%221%22%20parent%3D%220%22%2F%3E%3CmxCell%20id%3D%222%22%20value%3D%22%22%20style%3D%22endArrow%3Dnone%3Bhtml%3D1%3Brounded%3D0%3BentryX%3D0.5%3BentryY%3D1%3BentryDx%3D0%3BentryDy%3D0%3B%22%20edge%3D%221%22%20parent%3D%221%22%3E%3CmxGeometry%20width%3D%2250%22%20height%3D%2250%22%20relative%3D%221%22%20as%3D%22geometry%22%3E%3CmxPoint%20x%3D%2290%22%20y%3D%2216.800048828125%22%20as%3D%22sourcePoint%22%2F%3E%3CmxPoint%20x%3D%2290%22%20y%3D%22-650%22%20as%3D%22targetPoint%22%2F%3E%3C%2FmxGeometry%3E%3C%2FmxCell%3E%3C%2Froot%3E%3C%2FmxGraphModel%3E&lt;/span&gt;&lt;span style=&quot;color: rgba(0, 0, 0, 0); font-family: monospace; font-size: 0px; text-align: start; background-color: rgb(251, 251, 251);&quot;&gt;%3CmxGraphModel%3E%3Croot%3E%3CmxCell%20id%3D%220%22%2F%3E%3CmxCell%20id%3D%221%22%20parent%3D%220%22%2F%3E%3CmxCell%20id%3D%222%22%20value%3D%22%22%20style%3D%22endArrow%3Dnone%3Bhtml%3D1%3Brounded%3D0%3BentryX%3D0.5%3BentryY%3D1%3BentryDx%3D0%3BentryDy%3D0%3B%22%20edge%3D%221%22%20parent%3D%221%22%3E%3CmxGeometry%20width%3D%2250%22%20height%3D%2250%22%20relative%3D%221%22%20as%3D%22geometry%22%3E%3CmxPoint%20x%3D%2290%22%20y%3D%2216.800048828125%22%20as%3D%22sourcePoint%22%2F%3E%3CmxPoint%20x%3D%2290%22%20y%3D%22-650%22%20as%3D%22targetPoint%22%2F%3E%3C%2FmxGeometry%3E%3C%2FmxCell%3E%3C%2Froot%3E%3C%2FmxGraphModel%3E&lt;/span&gt;&lt;span style=&quot;color: rgba(0, 0, 0, 0); font-family: monospace; font-size: 0px; text-align: start; background-color: rgb(251, 251, 251);&quot;&gt;%3CmxGraphModel%3E%3Croot%3E%3CmxCell%20id%3D%220%22%2F%3E%3CmxCell%20id%3D%221%22%20parent%3D%220%22%2F%3E%3CmxCell%20id%3D%222%22%20value%3D%22%22%20style%3D%22endArrow%3Dnone%3Bhtml%3D1%3Brounded%3D0%3BentryX%3D0.5%3BentryY%3D1%3BentryDx%3D0%3BentryDy%3D0%3B%22%20edge%3D%221%22%20parent%3D%221%22%3E%3CmxGeometry%20width%3D%2250%22%20height%3D%2250%22%20relative%3D%221%22%20as%3D%22geometry%22%3E%3CmxPoint%20x%3D%2290%22%20y%3D%2216.800048828125%22%20as%3D%22sourcePoint%22%2F%3E%3CmxPoint%20x%3D%2290%22%20y%3D%22-650%22%20as%3D%22targetPoint%22%2F%3E%3C%2FmxGeometry%3E%3C%2FmxCell%3E%3C%2Froot%3E%3C%2FmxGraphModel%3E&lt;/span&gt;" style="endArrow=none;html=1;rounded=0;entryX=0.5;entryY=1;entryDx=0;entryDy=0;" edge="1" parent="1">
          <mxGeometry width="50" height="50" relative="1" as="geometry">
            <mxPoint x="240" y="920" as="sourcePoint" />
            <mxPoint x="240" y="-650" as="targetPoint" />
          </mxGeometry>
        </mxCell>
        <mxCell id="feQ73xQbz-p39PmRA1JL-11" value="" style="endArrow=none;html=1;rounded=0;entryX=0.5;entryY=1;entryDx=0;entryDy=0;" edge="1" parent="1">
          <mxGeometry width="50" height="50" relative="1" as="geometry">
            <mxPoint x="850" y="910" as="sourcePoint" />
            <mxPoint x="859.5" y="-650" as="targetPoint" />
          </mxGeometry>
        </mxCell>
        <mxCell id="feQ73xQbz-p39PmRA1JL-12" value="" style="endArrow=none;html=1;rounded=0;entryX=0.5;entryY=1;entryDx=0;entryDy=0;" edge="1" parent="1">
          <mxGeometry width="50" height="50" relative="1" as="geometry">
            <mxPoint x="710" y="910" as="sourcePoint" />
            <mxPoint x="719.5" y="-650" as="targetPoint" />
          </mxGeometry>
        </mxCell>
        <mxCell id="feQ73xQbz-p39PmRA1JL-13" value="" style="endArrow=classic;html=1;rounded=0;" edge="1" parent="1">
          <mxGeometry width="50" height="50" relative="1" as="geometry">
            <mxPoint x="95" y="-300" as="sourcePoint" />
            <mxPoint x="225" y="-300" as="targetPoint" />
          </mxGeometry>
        </mxCell>
        <mxCell id="feQ73xQbz-p39PmRA1JL-14" value="" style="endArrow=classic;html=1;rounded=0;" edge="1" parent="1">
          <mxGeometry width="50" height="50" relative="1" as="geometry">
            <mxPoint x="90" y="-533" as="sourcePoint" />
            <mxPoint x="230" y="-533" as="targetPoint" />
          </mxGeometry>
        </mxCell>
        <mxCell id="feQ73xQbz-p39PmRA1JL-15" value="" style="endArrow=classic;html=1;rounded=0;" edge="1" parent="1">
          <mxGeometry width="50" height="50" relative="1" as="geometry">
            <mxPoint x="414" y="-530" as="sourcePoint" />
            <mxPoint x="570" y="-530" as="targetPoint" />
          </mxGeometry>
        </mxCell>
        <mxCell id="feQ73xQbz-p39PmRA1JL-16" value="" style="endArrow=classic;html=1;rounded=0;" edge="1" parent="1">
          <mxGeometry width="50" height="50" relative="1" as="geometry">
            <mxPoint x="565" y="-110" as="sourcePoint" />
            <mxPoint x="710" y="-110" as="targetPoint" />
          </mxGeometry>
        </mxCell>
        <mxCell id="feQ73xQbz-p39PmRA1JL-17" value="" style="endArrow=classic;html=1;rounded=0;" edge="1" parent="1">
          <mxGeometry width="50" height="50" relative="1" as="geometry">
            <mxPoint x="90" y="90" as="sourcePoint" />
            <mxPoint x="240" y="90" as="targetPoint" />
          </mxGeometry>
        </mxCell>
        <mxCell id="feQ73xQbz-p39PmRA1JL-18" value="" style="endArrow=classic;html=1;rounded=0;" edge="1" parent="1">
          <mxGeometry width="50" height="50" relative="1" as="geometry">
            <mxPoint x="245" y="-510" as="sourcePoint" />
            <mxPoint x="420" y="-510" as="targetPoint" />
          </mxGeometry>
        </mxCell>
        <mxCell id="feQ73xQbz-p39PmRA1JL-19" value="" style="endArrow=classic;html=1;rounded=0;" edge="1" parent="1">
          <mxGeometry width="50" height="50" relative="1" as="geometry">
            <mxPoint x="90" y="-140" as="sourcePoint" />
            <mxPoint x="240" y="-140" as="targetPoint" />
          </mxGeometry>
        </mxCell>
        <mxCell id="feQ73xQbz-p39PmRA1JL-21" value="" style="endArrow=classic;html=1;rounded=0;" edge="1" parent="1">
          <mxGeometry width="50" height="50" relative="1" as="geometry">
            <mxPoint x="250" y="-282" as="sourcePoint" />
            <mxPoint x="380" y="-282" as="targetPoint" />
          </mxGeometry>
        </mxCell>
        <mxCell id="feQ73xQbz-p39PmRA1JL-22" value="" style="endArrow=classic;html=1;rounded=0;" edge="1" parent="1">
          <mxGeometry width="50" height="50" relative="1" as="geometry">
            <mxPoint x="574" y="-430" as="sourcePoint" />
            <mxPoint x="414" y="-430" as="targetPoint" />
          </mxGeometry>
        </mxCell>
        <mxCell id="feQ73xQbz-p39PmRA1JL-23" value="" style="endArrow=classic;html=1;rounded=0;" edge="1" parent="1">
          <mxGeometry width="50" height="50" relative="1" as="geometry">
            <mxPoint x="564" y="-240" as="sourcePoint" />
            <mxPoint x="414" y="-240" as="targetPoint" />
          </mxGeometry>
        </mxCell>
        <mxCell id="feQ73xQbz-p39PmRA1JL-24" value="" style="endArrow=classic;html=1;rounded=0;" edge="1" parent="1">
          <mxGeometry width="50" height="50" relative="1" as="geometry">
            <mxPoint x="240" y="160" as="sourcePoint" />
            <mxPoint x="90" y="160" as="targetPoint" />
          </mxGeometry>
        </mxCell>
        <mxCell id="feQ73xQbz-p39PmRA1JL-25" value="Register User" style="text;html=1;align=center;verticalAlign=middle;resizable=0;points=[];autosize=1;strokeColor=none;fillColor=none;" vertex="1" parent="1">
          <mxGeometry x="110" y="-572" width="100" height="30" as="geometry" />
        </mxCell>
        <mxCell id="feQ73xQbz-p39PmRA1JL-26" value="Create User()" style="text;html=1;align=center;verticalAlign=middle;resizable=0;points=[];autosize=1;strokeColor=none;fillColor=none;" vertex="1" parent="1">
          <mxGeometry x="240" y="-552" width="100" height="30" as="geometry" />
        </mxCell>
        <mxCell id="feQ73xQbz-p39PmRA1JL-27" value="Save User()" style="text;html=1;align=center;verticalAlign=middle;resizable=0;points=[];autosize=1;strokeColor=none;fillColor=none;" vertex="1" parent="1">
          <mxGeometry x="425" y="-562" width="90" height="30" as="geometry" />
        </mxCell>
        <mxCell id="feQ73xQbz-p39PmRA1JL-28" value="If user Exists Throe Exception" style="text;html=1;align=center;verticalAlign=middle;resizable=0;points=[];autosize=1;strokeColor=none;fillColor=none;" vertex="1" parent="1">
          <mxGeometry x="400" y="-472" width="180" height="30" as="geometry" />
        </mxCell>
        <mxCell id="feQ73xQbz-p39PmRA1JL-29" value="" style="endArrow=classic;html=1;rounded=0;" edge="1" parent="1">
          <mxGeometry width="50" height="50" relative="1" as="geometry">
            <mxPoint x="240" y="-400" as="sourcePoint" />
            <mxPoint x="90" y="-400" as="targetPoint" />
          </mxGeometry>
        </mxCell>
        <mxCell id="feQ73xQbz-p39PmRA1JL-30" value="User Registration Failed" style="text;html=1;align=center;verticalAlign=middle;resizable=0;points=[];autosize=1;strokeColor=none;fillColor=none;" vertex="1" parent="1">
          <mxGeometry x="75" y="-442" width="150" height="30" as="geometry" />
        </mxCell>
        <mxCell id="feQ73xQbz-p39PmRA1JL-31" value="" style="endArrow=classic;html=1;rounded=0;" edge="1" parent="1">
          <mxGeometry width="50" height="50" relative="1" as="geometry">
            <mxPoint x="240" y="-360" as="sourcePoint" />
            <mxPoint x="90" y="-360" as="targetPoint" />
          </mxGeometry>
        </mxCell>
        <mxCell id="feQ73xQbz-p39PmRA1JL-32" value="User Registration Successful" style="text;html=1;align=center;verticalAlign=middle;resizable=0;points=[];autosize=1;strokeColor=none;fillColor=none;" vertex="1" parent="1">
          <mxGeometry x="70" y="-392" width="180" height="30" as="geometry" />
        </mxCell>
        <mxCell id="feQ73xQbz-p39PmRA1JL-33" value="Login" style="text;html=1;align=center;verticalAlign=middle;resizable=0;points=[];autosize=1;strokeColor=none;fillColor=none;" vertex="1" parent="1">
          <mxGeometry x="105" y="-332" width="50" height="30" as="geometry" />
        </mxCell>
        <mxCell id="feQ73xQbz-p39PmRA1JL-34" value="Athunticate" style="text;html=1;align=center;verticalAlign=middle;resizable=0;points=[];autosize=1;strokeColor=none;fillColor=none;" vertex="1" parent="1">
          <mxGeometry x="270" y="-320" width="80" height="30" as="geometry" />
        </mxCell>
        <mxCell id="feQ73xQbz-p39PmRA1JL-35" value="Check Credentials" style="text;html=1;align=center;verticalAlign=middle;resizable=0;points=[];autosize=1;strokeColor=none;fillColor=none;" vertex="1" parent="1">
          <mxGeometry x="414" y="-320" width="120" height="30" as="geometry" />
        </mxCell>
        <mxCell id="feQ73xQbz-p39PmRA1JL-36" value="if invalid credentials throe exception" style="text;html=1;align=center;verticalAlign=middle;resizable=0;points=[];autosize=1;strokeColor=none;fillColor=none;" vertex="1" parent="1">
          <mxGeometry x="400" y="-270" width="210" height="30" as="geometry" />
        </mxCell>
        <mxCell id="feQ73xQbz-p39PmRA1JL-37" value="" style="endArrow=classic;html=1;rounded=0;" edge="1" parent="1">
          <mxGeometry width="50" height="50" relative="1" as="geometry">
            <mxPoint x="240" y="-240" as="sourcePoint" />
            <mxPoint x="90" y="-240" as="targetPoint" />
          </mxGeometry>
        </mxCell>
        <mxCell id="feQ73xQbz-p39PmRA1JL-38" value="invalid credentials" style="text;html=1;align=center;verticalAlign=middle;resizable=0;points=[];autosize=1;strokeColor=none;fillColor=none;" vertex="1" parent="1">
          <mxGeometry x="100" y="-282" width="120" height="30" as="geometry" />
        </mxCell>
        <mxCell id="feQ73xQbz-p39PmRA1JL-39" value="" style="endArrow=classic;html=1;rounded=0;" edge="1" parent="1">
          <mxGeometry width="50" height="50" relative="1" as="geometry">
            <mxPoint x="240" y="-190" as="sourcePoint" />
            <mxPoint x="90" y="-190" as="targetPoint" />
          </mxGeometry>
        </mxCell>
        <mxCell id="feQ73xQbz-p39PmRA1JL-40" value="successful login" style="text;html=1;align=center;verticalAlign=middle;resizable=0;points=[];autosize=1;strokeColor=none;fillColor=none;" vertex="1" parent="1">
          <mxGeometry x="105" y="-222" width="110" height="30" as="geometry" />
        </mxCell>
        <mxCell id="feQ73xQbz-p39PmRA1JL-41" value="Search Flights" style="text;html=1;align=center;verticalAlign=middle;resizable=0;points=[];autosize=1;strokeColor=none;fillColor=none;" vertex="1" parent="1">
          <mxGeometry x="90" y="-172" width="100" height="30" as="geometry" />
        </mxCell>
        <mxCell id="feQ73xQbz-p39PmRA1JL-42" value="get all Flights" style="text;html=1;align=center;verticalAlign=middle;resizable=0;points=[];autosize=1;strokeColor=none;fillColor=none;" vertex="1" parent="1">
          <mxGeometry x="575" y="-152" width="90" height="30" as="geometry" />
        </mxCell>
        <mxCell id="feQ73xQbz-p39PmRA1JL-43" value="" style="endArrow=classic;html=1;rounded=0;" edge="1" parent="1">
          <mxGeometry width="50" height="50" relative="1" as="geometry">
            <mxPoint x="860" as="sourcePoint" />
            <mxPoint x="575" as="targetPoint" />
          </mxGeometry>
        </mxCell>
        <mxCell id="feQ73xQbz-p39PmRA1JL-44" value="" style="endArrow=classic;html=1;rounded=0;" edge="1" parent="1">
          <mxGeometry width="50" height="50" relative="1" as="geometry">
            <mxPoint x="570" y="-60" as="sourcePoint" />
            <mxPoint x="710" y="-60" as="targetPoint" />
          </mxGeometry>
        </mxCell>
        <mxCell id="feQ73xQbz-p39PmRA1JL-46" value="Find All Flights" style="text;html=1;align=center;verticalAlign=middle;resizable=0;points=[];autosize=1;strokeColor=none;fillColor=none;" vertex="1" parent="1">
          <mxGeometry x="570" y="-100" width="100" height="30" as="geometry" />
        </mxCell>
        <mxCell id="feQ73xQbz-p39PmRA1JL-47" value="Returns List of Flights" style="text;html=1;align=center;verticalAlign=middle;resizable=0;points=[];autosize=1;strokeColor=none;fillColor=none;" vertex="1" parent="1">
          <mxGeometry x="575" y="-40" width="140" height="30" as="geometry" />
        </mxCell>
        <mxCell id="feQ73xQbz-p39PmRA1JL-48" value="Seklect Flight" style="text;html=1;align=center;verticalAlign=middle;resizable=0;points=[];autosize=1;strokeColor=none;fillColor=none;" vertex="1" parent="1">
          <mxGeometry x="80" y="48" width="100" height="30" as="geometry" />
        </mxCell>
        <mxCell id="feQ73xQbz-p39PmRA1JL-49" value="" style="endArrow=classic;html=1;rounded=0;" edge="1" parent="1">
          <mxGeometry width="50" height="50" relative="1" as="geometry">
            <mxPoint x="565" y="100" as="sourcePoint" />
            <mxPoint x="715" y="100" as="targetPoint" />
          </mxGeometry>
        </mxCell>
        <mxCell id="feQ73xQbz-p39PmRA1JL-50" value="" style="endArrow=classic;html=1;rounded=0;" edge="1" parent="1">
          <mxGeometry width="50" height="50" relative="1" as="geometry">
            <mxPoint x="570" y="130" as="sourcePoint" />
            <mxPoint x="720" y="130" as="targetPoint" />
          </mxGeometry>
        </mxCell>
        <mxCell id="feQ73xQbz-p39PmRA1JL-52" value="" style="endArrow=classic;html=1;rounded=0;" edge="1" parent="1">
          <mxGeometry width="50" height="50" relative="1" as="geometry">
            <mxPoint x="90" y="280" as="sourcePoint" />
            <mxPoint x="240" y="280" as="targetPoint" />
          </mxGeometry>
        </mxCell>
        <mxCell id="feQ73xQbz-p39PmRA1JL-53" value="Get Flight ByID" style="text;html=1;align=center;verticalAlign=middle;resizable=0;points=[];autosize=1;strokeColor=none;fillColor=none;" vertex="1" parent="1">
          <mxGeometry x="580" y="68" width="100" height="30" as="geometry" />
        </mxCell>
        <mxCell id="feQ73xQbz-p39PmRA1JL-54" value="FindByID" style="text;html=1;align=center;verticalAlign=middle;resizable=0;points=[];autosize=1;strokeColor=none;fillColor=none;" vertex="1" parent="1">
          <mxGeometry x="575" y="98" width="70" height="30" as="geometry" />
        </mxCell>
        <mxCell id="feQ73xQbz-p39PmRA1JL-55" value="if flight not found, return empty" style="text;html=1;align=center;verticalAlign=middle;resizable=0;points=[];autosize=1;strokeColor=none;fillColor=none;" vertex="1" parent="1">
          <mxGeometry x="570" y="140" width="190" height="30" as="geometry" />
        </mxCell>
        <mxCell id="feQ73xQbz-p39PmRA1JL-57" value="Flight Not Found" style="text;html=1;align=center;verticalAlign=middle;resizable=0;points=[];autosize=1;strokeColor=none;fillColor=none;" vertex="1" parent="1">
          <mxGeometry x="125" y="128" width="110" height="30" as="geometry" />
        </mxCell>
        <mxCell id="feQ73xQbz-p39PmRA1JL-58" value="BookingService" style="rounded=0;whiteSpace=wrap;html=1;" vertex="1" parent="1">
          <mxGeometry x="950" y="-680" width="120" height="30" as="geometry" />
        </mxCell>
        <mxCell id="feQ73xQbz-p39PmRA1JL-59" value="BookingController" style="rounded=0;whiteSpace=wrap;html=1;" vertex="1" parent="1">
          <mxGeometry x="1110" y="-680" width="120" height="30" as="geometry" />
        </mxCell>
        <mxCell id="feQ73xQbz-p39PmRA1JL-60" value="" style="endArrow=none;html=1;rounded=0;entryX=0.5;entryY=1;entryDx=0;entryDy=0;" edge="1" parent="1">
          <mxGeometry width="50" height="50" relative="1" as="geometry">
            <mxPoint x="1000" y="910" as="sourcePoint" />
            <mxPoint x="1000" y="-650" as="targetPoint" />
          </mxGeometry>
        </mxCell>
        <mxCell id="feQ73xQbz-p39PmRA1JL-61" value="" style="endArrow=none;html=1;rounded=0;entryX=0.5;entryY=1;entryDx=0;entryDy=0;" edge="1" parent="1">
          <mxGeometry width="50" height="50" relative="1" as="geometry">
            <mxPoint x="1160" y="900" as="sourcePoint" />
            <mxPoint x="1160" y="-650" as="targetPoint" />
          </mxGeometry>
        </mxCell>
        <mxCell id="feQ73xQbz-p39PmRA1JL-62" value="Proceed To Book" style="text;html=1;align=center;verticalAlign=middle;resizable=0;points=[];autosize=1;strokeColor=none;fillColor=none;" vertex="1" parent="1">
          <mxGeometry x="85" y="220" width="110" height="30" as="geometry" />
        </mxCell>
        <mxCell id="feQ73xQbz-p39PmRA1JL-63" value="" style="endArrow=classic;html=1;rounded=0;" edge="1" parent="1">
          <mxGeometry width="50" height="50" relative="1" as="geometry">
            <mxPoint x="860" y="260" as="sourcePoint" />
            <mxPoint x="1010" y="260" as="targetPoint" />
          </mxGeometry>
        </mxCell>
        <mxCell id="feQ73xQbz-p39PmRA1JL-64" value="Create Booking" style="text;html=1;align=center;verticalAlign=middle;resizable=0;points=[];autosize=1;strokeColor=none;fillColor=none;" vertex="1" parent="1">
          <mxGeometry x="855" y="218" width="110" height="30" as="geometry" />
        </mxCell>
        <mxCell id="feQ73xQbz-p39PmRA1JL-65" value="" style="endArrow=classic;html=1;rounded=0;" edge="1" parent="1">
          <mxGeometry width="50" height="50" relative="1" as="geometry">
            <mxPoint x="860" y="330" as="sourcePoint" />
            <mxPoint x="1010" y="330" as="targetPoint" />
          </mxGeometry>
        </mxCell>
        <mxCell id="feQ73xQbz-p39PmRA1JL-66" value="SaveBooking" style="text;html=1;align=center;verticalAlign=middle;resizable=0;points=[];autosize=1;strokeColor=none;fillColor=none;" vertex="1" parent="1">
          <mxGeometry x="860" y="298" width="90" height="30" as="geometry" />
        </mxCell>
        <mxCell id="feQ73xQbz-p39PmRA1JL-67" value="" style="endArrow=classic;html=1;rounded=0;" edge="1" parent="1">
          <mxGeometry width="50" height="50" relative="1" as="geometry">
            <mxPoint x="1160" y="380" as="sourcePoint" />
            <mxPoint x="880" y="380" as="targetPoint" />
          </mxGeometry>
        </mxCell>
        <mxCell id="feQ73xQbz-p39PmRA1JL-68" value="If User Or Flight Not Found Throw Exception" style="text;html=1;align=center;verticalAlign=middle;resizable=0;points=[];autosize=1;strokeColor=none;fillColor=none;" vertex="1" parent="1">
          <mxGeometry x="830" y="348" width="260" height="30" as="geometry" />
        </mxCell>
        <mxCell id="feQ73xQbz-p39PmRA1JL-69" value="" style="endArrow=classic;html=1;rounded=0;" edge="1" parent="1">
          <mxGeometry width="50" height="50" relative="1" as="geometry">
            <mxPoint x="240" y="370" as="sourcePoint" />
            <mxPoint x="90" y="370" as="targetPoint" />
          </mxGeometry>
        </mxCell>
        <mxCell id="feQ73xQbz-p39PmRA1JL-70" value="User or Flight Not Found" style="text;html=1;align=center;verticalAlign=middle;resizable=0;points=[];autosize=1;strokeColor=none;fillColor=none;" vertex="1" parent="1">
          <mxGeometry x="85" y="338" width="150" height="30" as="geometry" />
        </mxCell>
        <mxCell id="feQ73xQbz-p39PmRA1JL-71" value="PaymentService" style="rounded=0;whiteSpace=wrap;html=1;" vertex="1" parent="1">
          <mxGeometry x="1270" y="-680" width="120" height="30" as="geometry" />
        </mxCell>
        <mxCell id="feQ73xQbz-p39PmRA1JL-72" value="PaymentControlleer" style="rounded=0;whiteSpace=wrap;html=1;" vertex="1" parent="1">
          <mxGeometry x="1420" y="-680" width="120" height="30" as="geometry" />
        </mxCell>
        <mxCell id="feQ73xQbz-p39PmRA1JL-73" value="" style="endArrow=none;html=1;rounded=0;entryX=0.5;entryY=1;entryDx=0;entryDy=0;" edge="1" parent="1">
          <mxGeometry width="50" height="50" relative="1" as="geometry">
            <mxPoint x="1320" y="890" as="sourcePoint" />
            <mxPoint x="1329.5" y="-650" as="targetPoint" />
          </mxGeometry>
        </mxCell>
        <mxCell id="feQ73xQbz-p39PmRA1JL-74" value="" style="endArrow=none;html=1;rounded=0;entryX=0.5;entryY=1;entryDx=0;entryDy=0;" edge="1" parent="1">
          <mxGeometry width="50" height="50" relative="1" as="geometry">
            <mxPoint x="1470" y="910" as="sourcePoint" />
            <mxPoint x="1470" y="-650" as="targetPoint" />
          </mxGeometry>
        </mxCell>
        <mxCell id="feQ73xQbz-p39PmRA1JL-75" value="" style="endArrow=classic;html=1;rounded=0;" edge="1" parent="1">
          <mxGeometry width="50" height="50" relative="1" as="geometry">
            <mxPoint x="90" y="460" as="sourcePoint" />
            <mxPoint x="240" y="460" as="targetPoint" />
          </mxGeometry>
        </mxCell>
        <mxCell id="feQ73xQbz-p39PmRA1JL-76" value="" style="endArrow=classic;html=1;rounded=0;" edge="1" parent="1">
          <mxGeometry width="50" height="50" relative="1" as="geometry">
            <mxPoint x="1166" y="450" as="sourcePoint" />
            <mxPoint x="1316" y="450" as="targetPoint" />
          </mxGeometry>
        </mxCell>
        <mxCell id="feQ73xQbz-p39PmRA1JL-77" value="" style="endArrow=classic;html=1;rounded=0;" edge="1" parent="1">
          <mxGeometry width="50" height="50" relative="1" as="geometry">
            <mxPoint x="1166" y="560" as="sourcePoint" />
            <mxPoint x="1316" y="560" as="targetPoint" />
          </mxGeometry>
        </mxCell>
        <mxCell id="feQ73xQbz-p39PmRA1JL-78" value="" style="endArrow=classic;html=1;rounded=0;" edge="1" parent="1">
          <mxGeometry width="50" height="50" relative="1" as="geometry">
            <mxPoint x="1460" y="600" as="sourcePoint" />
            <mxPoint x="1180" y="600" as="targetPoint" />
          </mxGeometry>
        </mxCell>
        <mxCell id="feQ73xQbz-p39PmRA1JL-80" value="" style="endArrow=classic;html=1;rounded=0;" edge="1" parent="1">
          <mxGeometry width="50" height="50" relative="1" as="geometry">
            <mxPoint x="245" y="650" as="sourcePoint" />
            <mxPoint x="90" y="650" as="targetPoint" />
          </mxGeometry>
        </mxCell>
        <mxCell id="feQ73xQbz-p39PmRA1JL-81" value="" style="endArrow=classic;html=1;rounded=0;" edge="1" parent="1">
          <mxGeometry width="50" height="50" relative="1" as="geometry">
            <mxPoint x="90" y="710" as="sourcePoint" />
            <mxPoint x="240" y="710" as="targetPoint" />
          </mxGeometry>
        </mxCell>
        <mxCell id="feQ73xQbz-p39PmRA1JL-82" value="" style="endArrow=classic;html=1;rounded=0;" edge="1" parent="1">
          <mxGeometry width="50" height="50" relative="1" as="geometry">
            <mxPoint x="1166" y="730" as="sourcePoint" />
            <mxPoint x="1316" y="730" as="targetPoint" />
          </mxGeometry>
        </mxCell>
        <mxCell id="feQ73xQbz-p39PmRA1JL-83" value="" style="endArrow=classic;html=1;rounded=0;" edge="1" parent="1">
          <mxGeometry width="50" height="50" relative="1" as="geometry">
            <mxPoint x="1166" y="780" as="sourcePoint" />
            <mxPoint x="1316" y="780" as="targetPoint" />
          </mxGeometry>
        </mxCell>
        <mxCell id="feQ73xQbz-p39PmRA1JL-84" value="" style="endArrow=classic;html=1;rounded=0;" edge="1" parent="1">
          <mxGeometry width="50" height="50" relative="1" as="geometry">
            <mxPoint x="1470" y="840" as="sourcePoint" />
            <mxPoint x="1170" y="840" as="targetPoint" />
          </mxGeometry>
        </mxCell>
        <mxCell id="feQ73xQbz-p39PmRA1JL-85" value="" style="endArrow=classic;html=1;rounded=0;" edge="1" parent="1">
          <mxGeometry width="50" height="50" relative="1" as="geometry">
            <mxPoint x="240" y="860" as="sourcePoint" />
            <mxPoint x="85" y="860" as="targetPoint" />
          </mxGeometry>
        </mxCell>
        <mxCell id="feQ73xQbz-p39PmRA1JL-86" value="" style="endArrow=classic;html=1;rounded=0;" edge="1" parent="1">
          <mxGeometry width="50" height="50" relative="1" as="geometry">
            <mxPoint x="245" y="910" as="sourcePoint" />
            <mxPoint x="90" y="910" as="targetPoint" />
          </mxGeometry>
        </mxCell>
        <mxCell id="feQ73xQbz-p39PmRA1JL-87" value="Make Payment" style="text;html=1;align=center;verticalAlign=middle;resizable=0;points=[];autosize=1;strokeColor=none;fillColor=none;" vertex="1" parent="1">
          <mxGeometry x="80" y="428" width="100" height="30" as="geometry" />
        </mxCell>
        <mxCell id="feQ73xQbz-p39PmRA1JL-88" value="Payment failure" style="text;html=1;align=center;verticalAlign=middle;resizable=0;points=[];autosize=1;strokeColor=none;fillColor=none;" vertex="1" parent="1">
          <mxGeometry x="115" y="608" width="110" height="30" as="geometry" />
        </mxCell>
        <mxCell id="feQ73xQbz-p39PmRA1JL-89" value="Retry Payment " style="text;html=1;align=center;verticalAlign=middle;resizable=0;points=[];autosize=1;strokeColor=none;fillColor=none;" vertex="1" parent="1">
          <mxGeometry x="110" y="668" width="100" height="30" as="geometry" />
        </mxCell>
        <mxCell id="feQ73xQbz-p39PmRA1JL-90" value="Payment success" style="text;html=1;align=center;verticalAlign=middle;resizable=0;points=[];autosize=1;strokeColor=none;fillColor=none;" vertex="1" parent="1">
          <mxGeometry x="120" y="828" width="120" height="30" as="geometry" />
        </mxCell>
        <mxCell id="feQ73xQbz-p39PmRA1JL-91" value="Confirmation " style="text;html=1;align=center;verticalAlign=middle;resizable=0;points=[];autosize=1;strokeColor=none;fillColor=none;" vertex="1" parent="1">
          <mxGeometry x="105" y="878" width="90" height="30" as="geometry" />
        </mxCell>
        <mxCell id="feQ73xQbz-p39PmRA1JL-92" value="makePayment() " style="text;html=1;align=center;verticalAlign=middle;resizable=0;points=[];autosize=1;strokeColor=none;fillColor=none;" vertex="1" parent="1">
          <mxGeometry x="1155" y="408" width="110" height="30" as="geometry" />
        </mxCell>
        <mxCell id="feQ73xQbz-p39PmRA1JL-93" value="process payment" style="text;html=1;align=center;verticalAlign=middle;resizable=0;points=[];autosize=1;strokeColor=none;fillColor=none;" vertex="1" parent="1">
          <mxGeometry x="1165" y="508" width="110" height="30" as="geometry" />
        </mxCell>
        <mxCell id="feQ73xQbz-p39PmRA1JL-94" value="if payment fails, return failure" style="text;html=1;align=center;verticalAlign=middle;resizable=0;points=[];autosize=1;strokeColor=none;fillColor=none;" vertex="1" parent="1">
          <mxGeometry x="1150" y="568" width="180" height="30" as="geometry" />
        </mxCell>
        <mxCell id="feQ73xQbz-p39PmRA1JL-95" value="makePayment() " style="text;html=1;align=center;verticalAlign=middle;resizable=0;points=[];autosize=1;strokeColor=none;fillColor=none;" vertex="1" parent="1">
          <mxGeometry x="1145" y="688" width="110" height="30" as="geometry" />
        </mxCell>
        <mxCell id="feQ73xQbz-p39PmRA1JL-96" value="process payment " style="text;html=1;align=center;verticalAlign=middle;resizable=0;points=[];autosize=1;strokeColor=none;fillColor=none;" vertex="1" parent="1">
          <mxGeometry x="1155" y="748" width="110" height="30" as="geometry" />
        </mxCell>
        <mxCell id="feQ73xQbz-p39PmRA1JL-97" value="return payment status" style="text;html=1;align=center;verticalAlign=middle;resizable=0;points=[];autosize=1;strokeColor=none;fillColor=none;" vertex="1" parent="1">
          <mxGeometry x="1160" y="808" width="140" height="30" as="geometry" />
        </mxCell>
        <mxCell id="feQ73xQbz-p39PmRA1JL-98" value="" style="endArrow=classic;html=1;rounded=0;" edge="1" parent="1">
          <mxGeometry width="50" height="50" relative="1" as="geometry">
            <mxPoint x="414" y="-280" as="sourcePoint" />
            <mxPoint x="570" y="-280" as="targetPoint" />
          </mxGeometry>
        </mxCell>
        <mxCell id="feQ73xQbz-p39PmRA1JL-99" value="" style="endArrow=classic;html=1;rounded=0;" edge="1" parent="1">
          <mxGeometry width="50" height="50" relative="1" as="geometry">
            <mxPoint x="855" y="170" as="sourcePoint" />
            <mxPoint x="570" y="170" as="targetPoint" />
          </mxGeometry>
        </mxCell>
      </root>
    </mxGraphModel>
  </diagram>
</mxfile>
